<?xml version="1.0" encoding="UTF-8"?>
<!DOCTYPE svg PUBLIC "-//W3C//DTD SVG 1.1//EN" "http://www.w3.org/Graphics/SVG/1.1/DTD/svg11.dtd">
<svg xmlns="http://www.w3.org/2000/svg" version="1.1" width="16px" height="16px" style="shape-rendering:geometricPrecision; text-rendering:geometricPrecision; image-rendering:optimizeQuality; fill-rule:evenodd; clip-rule:evenodd" xmlns:xlink="http://www.w3.org/1999/xlink">
<g><path style="opacity:1" fill="#f6f6f6" d="M -0.5,-0.5 C 4.83333,-0.5 10.1667,-0.5 15.5,-0.5C 15.5,4.83333 15.5,10.1667 15.5,15.5C 10.1667,15.5 4.83333,15.5 -0.5,15.5C -0.5,10.1667 -0.5,4.83333 -0.5,-0.5 Z"/></g>
<g><path style="opacity:1" fill="#040404" d="M 0.5,4.5 C 1.4486,3.84761 2.61527,3.51428 4,3.5C 5.98934,3.92091 7.82267,4.58758 9.5,5.5C 8.83333,6.16667 8.16667,6.83333 7.5,7.5C 7.36007,9.12377 8.02674,10.2904 9.5,11C 8.55198,11.4828 7.55198,11.6495 6.5,11.5C 5.83333,2.16667 5.16667,2.16667 4.5,11.5C 3.53178,9.39263 3.19845,7.0593 3.5,4.5C 2.5,4.5 1.5,4.5 0.5,4.5 Z"/></g>
<g><path style="opacity:1" fill="#9a9a9a" d="M 0.5,4.5 C 1.5,4.5 2.5,4.5 3.5,4.5C 3.19845,7.0593 3.53178,9.39263 4.5,11.5C 4.44001,12.0431 4.10667,12.3764 3.5,12.5C 2.9083,9.56359 1.9083,6.89692 0.5,4.5 Z"/></g>
<g><path style="opacity:1" fill="#5f5f5f" d="M 9.5,5.5 C 11.288,5.21478 12.9547,5.54811 14.5,6.5C 13.9478,8.0026 13.9478,9.66927 14.5,11.5C 13.1266,11.6567 11.7932,11.49 10.5,11C 11.1667,10.6667 11.8333,10.3333 12.5,10C 11.0899,8.62829 9.42325,7.79495 7.5,7.5C 8.16667,6.83333 8.83333,6.16667 9.5,5.5 Z"/></g>
</svg>
